<?xml version="1.0" encoding="UTF-8"?>
<svg width="20px" height="18px" viewBox="0 0 20 18" version="1.1" xmlns="http://www.w3.org/2000/svg" xmlns:xlink="http://www.w3.org/1999/xlink">
    <!-- Generator: Sketch 52.4 (67378) - http://www.bohemiancoding.com/sketch -->
    <title>icon-menu</title>
    <desc>Created with Sketch.</desc>
    <defs>
        <polygon id="path-1" points="1.22087314e-05 -1.42108547e-14 19.0837426 -1.42108547e-14 19.0837426 17.8862363 1.22087314e-05 17.8862363"></polygon>
    </defs>
    <g id="icon-menu" stroke="none" stroke-width="1" fill="none" fill-rule="evenodd">
        <g id="Group-3">
            <mask id="mask-2" fill="white">
                <use xlink:href="#path-1"></use>
            </mask>
            <g id="Clip-2"></g>
            <path d="M9.54188911,11.0205446 C8.39452277,11.0205446 7.46440396,10.0904257 7.46440396,8.94305941 C7.46440396,7.79587129 8.39452277,6.86575248 9.54188911,6.86575248 C10.6892554,6.86575248 11.6193743,7.79587129 11.6193743,8.94305941 C11.6193743,10.0904257 10.6892554,11.0205446 9.54188911,11.0205446 M19.0569386,6.55137624 C19.0070376,6.46440594 18.9279089,6.43892079 18.8204436,6.47509901 C18.639196,6.54032673 18.5196119,6.56705941 18.4616911,6.55529703 C18.4034139,6.54353465 18.3440673,6.48454455 18.2831168,6.37832673 C18.2275129,6.28155446 18.1802851,6.10957426 18.1412554,5.8620297 C18.0309386,5.15450495 17.8814139,4.63589109 17.6930376,4.30725743 C17.2382257,3.51436634 16.6014535,3.00876238 15.7825426,2.7909802 C14.9636317,2.5730198 14.1529188,2.69420792 13.350404,3.15454455 C12.7216515,3.51507921 12.2973149,3.99591089 12.0770376,4.59775248 C11.9492554,4.94652475 11.8722653,5.39545545 11.8428594,5.93830693 C11.4678891,5.67347525 11.0198495,5.41078218 10.4987406,5.1500495 C9.6067604,4.70432673 9.02719604,4.35876238 8.75969109,4.11335644 C8.28028515,3.67850495 8.0407604,3.10464356 8.0407604,2.39105941 C8.0407604,1.77816832 8.20507723,1.29323762 8.53388911,0.936445545 C8.86270099,0.579653465 9.3057505,0.401257426 9.86339406,0.401257426 C10.4317307,0.401257426 10.9444634,0.621534653 11.4015921,1.06173267 C11.8585426,1.50228713 12.1483248,2.05119802 12.2711168,2.70882178 C12.3154931,2.96527723 12.3990772,3.09341584 12.5218693,3.09341584 C12.6332554,3.09341584 12.6833347,3.03228713 12.6724634,2.90949505 L12.6557109,2.64181188 C12.5997505,2.32993069 12.5721267,1.90612871 12.5721267,1.37111881 C12.5721267,0.992227723 12.5888792,0.668762376 12.6222059,0.401257426 C12.6332554,0.356881188 12.6389584,0.290049505 12.6389584,0.200584158 C12.6389584,0.0669207921 12.582998,-8.91089109e-05 12.4717901,-8.91089109e-05 C12.3714535,-8.91089109e-05 12.3099683,0.0558712871 12.2878693,0.167257426 C12.2543644,0.356881188 12.2181861,0.473792079 12.1791564,0.518346535 C12.1399485,0.56290099 12.0592158,0.585178218 11.9367802,0.585178218 C11.8252158,0.585178218 11.6523446,0.54080198 11.4183446,0.451336634 C10.7494931,0.195237624 10.2253545,0.0669207921 9.84664158,0.0669207921 C8.93238416,0.0669207921 8.17709703,0.367752475 7.58095842,0.969772277 C6.98446337,1.57179208 6.68630495,2.33545545 6.68630495,3.26058416 C6.68630495,3.98539604 6.89250297,4.59276238 7.30489901,5.08321782 C7.35907723,5.14755446 7.41949307,5.21224752 7.48489901,5.27729703 C7.06091881,5.4300297 6.59933465,5.63925743 6.09836436,5.90765347 C5.21957228,6.37886139 4.60293861,6.65260396 4.24828515,6.72959406 C3.61650297,6.87020792 3.00949307,6.73458416 2.42672079,6.32290099 C1.92610693,5.96913861 1.62491881,5.5549604 1.52333465,5.08054455 C1.4217505,4.60630693 1.53171089,4.14133663 1.85339406,3.6859901 C2.18149307,3.22173267 2.65733465,2.93016832 3.28056238,2.81094059 C3.90414653,2.69189109 4.51953267,2.77208911 5.12743366,3.05117822 C5.36268119,3.16309901 5.51541386,3.16862376 5.58634455,3.06846535 C5.65050297,2.97757426 5.62965149,2.90129703 5.52289901,2.83927723 L5.2947802,2.69866337 C5.0078495,2.56428713 4.64571089,2.34222772 4.20872079,2.03355446 C3.89933465,1.81488119 3.6448396,1.61456436 3.44559208,1.4329604 C3.41565149,1.39820792 3.36450297,1.35507921 3.29143366,1.30339604 C3.18218614,1.22622772 3.09539406,1.23335644 3.03105743,1.32424752 C2.97313663,1.4060495 2.98347327,1.48856436 3.06153267,1.57090099 C3.19715644,1.70759406 3.27165149,1.80490099 3.28555248,1.86228713 C3.29945347,1.9200297 3.27093861,1.99880198 3.20018614,2.0989604 C3.1358495,2.1900297 2.99986931,2.30551485 2.79188911,2.44505941 C2.19664158,2.84337624 1.78941386,3.19731683 1.57074059,3.50670297 C1.04321584,4.25325743 0.853057426,5.04383168 1.00062178,5.87806931 C1.14800792,6.71266337 1.59961188,7.39684158 2.35525545,7.93078218 C2.94711683,8.34888119 3.56214653,8.53119802 4.20070099,8.47719802 C4.55553267,8.44743564 4.97434455,8.33622772 5.45268119,8.14927723 C5.42398812,8.4230198 5.41044356,8.72010891 5.41311683,9.04214851 C5.4077703,9.12894059 5.40260198,9.21591089 5.40367129,9.3050198 C5.40545347,9.44313861 5.41899802,9.57715842 5.43895842,9.7090396 C5.44412673,9.7879901 5.44822574,9.86533663 5.4548198,9.94660396 C5.53733465,10.9403465 5.54285941,11.6150792 5.47210693,11.9711584 C5.34967129,12.6066832 4.98361188,13.1094356 4.37392871,13.4801287 C3.85014653,13.7984257 3.35024554,13.9098119 2.87458218,13.8141089 C2.39909703,13.7184059 2.01646337,13.4325446 1.72685941,12.9559901 C1.43155248,12.4701683 1.35349307,11.9176931 1.49232475,11.2983861 C1.63133465,10.6790792 1.94998812,10.1463861 2.44810693,9.6999505 C2.64432475,9.52886139 2.71026535,9.39092079 2.64664158,9.2859505 C2.58872079,9.19078218 2.51048317,9.17973267 2.41121584,9.25280198 L2.19129505,9.40606931 C1.95373069,9.61583168 1.60602772,9.85963366 1.14872079,10.1374752 C0.825077228,10.3342277 0.539928713,10.4880297 0.293988119,10.5983465 C0.250324752,10.6120693 0.190087129,10.6418317 0.113809901,10.6883465 C-0.000605940594,10.7576733 -0.0285861386,10.8401881 0.0291564356,10.9353564 C0.0811960396,11.0210792 0.160859406,11.044604 0.267611881,11.0057525 C0.447077228,10.9357129 0.565948515,10.9059505 0.624047525,10.9162871 C0.68250297,10.9264455 0.743453465,10.9840099 0.807077228,11.0886238 C0.865176238,11.1839703 0.916859406,11.354703 0.962126733,11.6011782 C1.09044356,12.3056733 1.25297822,12.8201881 1.44973069,13.1440099 C1.92450297,13.9251386 2.57410693,14.4143465 3.39800792,14.611099 C4.22226535,14.8082079 5.0297703,14.6663465 5.82034455,14.1858713 C6.43965149,13.8094752 6.85169109,13.3179505 7.05646337,12.7105842 C7.12115644,12.5193564 7.16856238,12.2965842 7.2027802,12.0486832 C7.23753267,12.0713168 7.27068119,12.0941287 7.30668119,12.1167624 C7.42697822,12.2142475 7.5528,12.3074554 7.69074059,12.391396 C7.89747327,12.5172178 8.11151287,12.6127426 8.3317901,12.681 C8.35210693,12.6909802 8.37064158,12.7009604 8.39113663,12.7109406 C9.2888198,13.144901 9.8728396,13.4829802 10.1435525,13.7248218 C10.6286614,14.1532574 10.8756713,14.7240891 10.8849386,15.4376733 C10.8929584,16.0505644 10.7348792,16.5374554 10.410701,16.898703 C10.086701,17.2595941 9.64596832,17.4436931 9.08850297,17.451 C8.51998812,17.4584851 8.00458218,17.244802 7.54157228,16.8106634 C7.07909703,16.3761683 6.78218614,15.831 6.6508396,15.1751584 C6.60307723,14.9192376 6.51771089,14.7921683 6.39491881,14.7937723 C6.28371089,14.795198 6.23434455,14.8570396 6.2468198,14.9796535 L6.26713663,15.2469802 C6.32701782,15.5581485 6.36034455,15.9815941 6.36729505,16.516604 C6.37228515,16.8953168 6.35963168,17.2189604 6.32969109,17.487 C6.31935446,17.5315545 6.31454257,17.5983861 6.31561188,17.6878515 C6.31739406,17.8215149 6.37424554,17.8878119 6.48545347,17.8862079 C6.5857901,17.8849604 6.64638416,17.8282871 6.66723564,17.7167228 C6.69806733,17.5265644 6.73299802,17.4091188 6.77131485,17.3642079 C6.8098099,17.3189406 6.89036436,17.2957723 7.0128,17.2941683 C7.12436436,17.2927426 7.2977703,17.334802 7.5328396,17.4210594 C8.20507723,17.668604 8.7308198,17.7901485 9.10953267,17.7851584 C10.0236119,17.7732178 10.7749782,17.4624059 11.3632752,16.8527228 C11.9519287,16.2430396 12.2399287,15.4756337 12.2279881,14.550505 C12.2183644,13.8258713 12.004503,13.2211782 11.5855129,12.7362475 C11.4527406,12.5822673 11.2837901,12.4272178 11.0859683,12.2709208 C11.4236911,12.107495 11.7824436,11.9071782 12.1631168,11.6683663 C13.0075129,11.1381683 13.6040079,10.822901 13.9527802,10.7218515 C14.5735129,10.5382871 15.1883644,10.6322079 15.7978693,11.0030792 C16.321295,11.3217327 16.6501069,11.7143465 16.7839485,12.1807426 C16.9177901,12.6469604 16.8399089,13.1183465 16.5499485,13.5945446 C16.2544634,14.0801881 15.7998297,14.4034752 15.1860475,14.565297 C14.5720871,14.7265842 13.952602,14.6886238 13.3270574,14.4517723 C13.0848594,14.3562475 12.9319485,14.3610594 12.8681465,14.4660297 C12.8102257,14.5610198 12.8364238,14.6356931 12.9469188,14.6902277 L13.1841267,14.8149802 C13.4797901,14.929396 13.8561861,15.1259703 14.3131366,15.4041683 C14.6367802,15.601099 14.9044634,15.7835941 15.1156515,15.951297 C15.1477307,15.9837327 15.2019089,16.0234752 15.2781861,16.0698119 C15.392602,16.139495 15.4786812,16.1264851 15.536602,16.0313168 C15.5888198,15.9457723 15.5729584,15.8641485 15.4893743,15.7873366 C15.3446614,15.6600891 15.2637505,15.5683069 15.2459287,15.5119901 C15.2281069,15.4553168 15.251097,15.3747624 15.314899,15.2699703 C15.3728198,15.174802 15.500602,15.0502277 15.698602,14.8967822 C16.2653347,14.4587228 16.6474337,14.0776931 16.8443644,13.7540495 C17.3194931,12.9732772 17.455295,12.1714752 17.2508792,11.3491782 C17.0468198,10.526703 16.5494139,9.87513861 15.759196,9.39412871 C15.1400673,9.01737624 14.5139881,8.87747525 13.880602,8.9749604 C13.7861465,8.98957426 13.6861663,9.01185149 13.5835129,9.03840594 C13.6339485,8.5620297 13.6428594,8.01775248 13.6077505,7.40165347 C13.5507208,6.40612871 13.562305,5.73157426 13.6419683,5.37745545 C13.7806218,4.74513861 14.1595129,4.25183168 14.7784634,3.89682178 C15.3100871,3.59206931 15.8124832,3.49333663 16.2856515,3.60115842 C16.7586416,3.70880198 17.1337901,4.00446535 17.4112752,4.48814851 C17.6941069,4.98127723 17.7579089,5.53553465 17.6035723,6.15127723 C17.448701,6.76666337 17.1166812,7.29115842 16.6073347,7.72476238 C16.4068396,7.89086139 16.3373347,8.02719802 16.3982851,8.13359406 C16.4537109,8.23018812 16.5317703,8.24337624 16.6328198,8.17280198 L16.8566614,8.02505941 C17.0993941,7.82153465 17.4531564,7.58664356 17.9174139,7.32038614 C18.2460475,7.1320099 18.5349386,6.98551485 18.7837307,6.88143564 C18.8275723,6.8689604 18.8885228,6.84062376 18.9660475,6.79624752 C19.0820673,6.72977228 19.1123644,6.6479703 19.0569386,6.55137624" id="Fill-1" fill="#000000" mask="url(#mask-2)"></path>
        </g>
    </g>
</svg>